<mxfile host="app.diagrams.net" modified="2020-12-29T15:30:17.766Z" agent="5.0 (Windows)" etag="ghICE7G-EBVnDRAXNWvE" version="14.0.1" type="github">
  <diagram id="C5RBs43oDa-KdzZeNtuy" name="Page-1">
    <mxGraphModel dx="1038" dy="547" grid="1" gridSize="10" guides="1" tooltips="1" connect="1" arrows="1" fold="1" page="1" pageScale="1" pageWidth="827" pageHeight="1169" math="0" shadow="0">
      <root>
        <mxCell id="WIyWlLk6GJQsqaUBKTNV-0" />
        <mxCell id="WIyWlLk6GJQsqaUBKTNV-1" parent="WIyWlLk6GJQsqaUBKTNV-0" />
        <mxCell id="lyuGTbBeJ2-KbHGN9zhW-0" value="کاربر" style="swimlane;fontStyle=3;align=center;verticalAlign=top;childLayout=stackLayout;horizontal=1;startSize=26;horizontalStack=0;resizeParent=1;resizeLast=0;collapsible=1;marginBottom=0;rounded=0;shadow=0;strokeWidth=1;fontSize=14;" parent="WIyWlLk6GJQsqaUBKTNV-1" vertex="1">
          <mxGeometry x="50" y="240" width="200" height="200" as="geometry">
            <mxRectangle x="230" y="140" width="160" height="26" as="alternateBounds" />
          </mxGeometry>
        </mxCell>
        <mxCell id="lyuGTbBeJ2-KbHGN9zhW-1" value="نام &#xa;نام کاربری&#xa;رمز عبور&#xa;آدرس&#xa;" style="text;align=right;verticalAlign=top;spacingLeft=4;spacingRight=4;overflow=hidden;rotatable=0;points=[[0,0.5],[1,0.5]];portConstraint=eastwest;fontSize=15;fontStyle=1" parent="lyuGTbBeJ2-KbHGN9zhW-0" vertex="1">
          <mxGeometry y="26" width="200" height="84" as="geometry" />
        </mxCell>
        <mxCell id="lyuGTbBeJ2-KbHGN9zhW-2" value="" style="line;html=1;strokeWidth=1;align=left;verticalAlign=middle;spacingTop=-1;spacingLeft=3;spacingRight=3;rotatable=0;labelPosition=right;points=[];portConstraint=eastwest;" parent="lyuGTbBeJ2-KbHGN9zhW-0" vertex="1">
          <mxGeometry y="110" width="200" height="30" as="geometry" />
        </mxCell>
        <mxCell id="lyuGTbBeJ2-KbHGN9zhW-3" value="&lt;div&gt;&lt;b&gt;() ورود به سیستم &lt;br&gt;&lt;/b&gt;&lt;/div&gt;&lt;div&gt;&lt;b&gt;() خروج از سیستم&lt;/b&gt;&lt;/div&gt;&lt;div&gt;&lt;b&gt;() ویرایش اطلاعات&lt;/b&gt;&lt;br&gt;&lt;/div&gt;" style="text;html=1;align=right;verticalAlign=middle;resizable=0;points=[];autosize=1;fontSize=15;" parent="lyuGTbBeJ2-KbHGN9zhW-0" vertex="1">
          <mxGeometry y="140" width="200" height="60" as="geometry" />
        </mxCell>
        <mxCell id="lyuGTbBeJ2-KbHGN9zhW-4" value="ادمین" style="swimlane;fontStyle=3;align=center;verticalAlign=top;childLayout=stackLayout;horizontal=1;startSize=26;horizontalStack=0;resizeParent=1;resizeLast=0;collapsible=1;marginBottom=0;rounded=0;shadow=0;strokeWidth=1;fontSize=13;" parent="WIyWlLk6GJQsqaUBKTNV-1" vertex="1">
          <mxGeometry x="310" y="240" width="200" height="130" as="geometry">
            <mxRectangle x="290" y="200" width="160" height="26" as="alternateBounds" />
          </mxGeometry>
        </mxCell>
        <mxCell id="lyuGTbBeJ2-KbHGN9zhW-6" value="" style="line;html=1;strokeWidth=1;align=left;verticalAlign=middle;spacingTop=-1;spacingLeft=3;spacingRight=3;rotatable=0;labelPosition=right;points=[];portConstraint=eastwest;" parent="lyuGTbBeJ2-KbHGN9zhW-4" vertex="1">
          <mxGeometry y="26" width="200" height="60" as="geometry" />
        </mxCell>
        <mxCell id="lyuGTbBeJ2-KbHGN9zhW-7" value="&lt;div&gt;&lt;b&gt;() حذف رستوران&lt;/b&gt;&lt;br&gt;&lt;/div&gt;&lt;div&gt;&lt;b&gt;() اضافه کردن رستوران&lt;/b&gt;&lt;br&gt;&lt;/div&gt;" style="text;html=1;align=right;verticalAlign=middle;resizable=0;points=[];autosize=1;fontSize=15;" parent="lyuGTbBeJ2-KbHGN9zhW-4" vertex="1">
          <mxGeometry y="86" width="200" height="40" as="geometry" />
        </mxCell>
        <mxCell id="lyuGTbBeJ2-KbHGN9zhW-8" value="خریدار" style="swimlane;fontStyle=3;align=center;verticalAlign=top;childLayout=stackLayout;horizontal=1;startSize=26;horizontalStack=0;resizeParent=1;resizeLast=0;collapsible=1;marginBottom=0;rounded=0;shadow=0;strokeWidth=1;fontSize=13;" parent="WIyWlLk6GJQsqaUBKTNV-1" vertex="1">
          <mxGeometry x="560" y="240" width="200" height="170" as="geometry">
            <mxRectangle x="230" y="140" width="160" height="26" as="alternateBounds" />
          </mxGeometry>
        </mxCell>
        <mxCell id="lyuGTbBeJ2-KbHGN9zhW-11" value="&lt;div align=&quot;right&quot;&gt;&lt;b&gt;موجودی کیف پول&lt;/b&gt;&lt;/div&gt;" style="text;html=1;align=right;verticalAlign=middle;resizable=0;points=[];autosize=1;fontSize=15;" parent="lyuGTbBeJ2-KbHGN9zhW-8" vertex="1">
          <mxGeometry y="26" width="200" height="20" as="geometry" />
        </mxCell>
        <mxCell id="lyuGTbBeJ2-KbHGN9zhW-9" value="" style="line;html=1;strokeWidth=1;align=left;verticalAlign=middle;spacingTop=-1;spacingLeft=3;spacingRight=3;rotatable=0;labelPosition=right;points=[];portConstraint=eastwest;" parent="lyuGTbBeJ2-KbHGN9zhW-8" vertex="1">
          <mxGeometry y="46" width="200" height="24" as="geometry" />
        </mxCell>
        <mxCell id="lyuGTbBeJ2-KbHGN9zhW-10" value="&lt;div&gt;&lt;b&gt;&amp;nbsp; () ثبت نام &lt;br&gt;&lt;/b&gt;&lt;/div&gt;&lt;div&gt;&lt;b&gt;() سفارش غذا&lt;/b&gt;&lt;/div&gt;&lt;div&gt;&lt;b&gt;() ثبت نظر&lt;/b&gt;&lt;/div&gt;&lt;div&gt;&lt;b&gt;() شارژ کیف پول&lt;/b&gt;&lt;/div&gt;&lt;div&gt;&lt;b&gt;() حذف از سیستم&lt;/b&gt;&lt;br&gt;&lt;/div&gt;" style="text;html=1;align=right;verticalAlign=middle;resizable=0;points=[];autosize=1;fontSize=15;" parent="lyuGTbBeJ2-KbHGN9zhW-8" vertex="1">
          <mxGeometry y="70" width="200" height="90" as="geometry" />
        </mxCell>
        <mxCell id="lyuGTbBeJ2-KbHGN9zhW-12" value="فروشنده" style="swimlane;fontStyle=3;align=center;verticalAlign=top;childLayout=stackLayout;horizontal=1;startSize=26;horizontalStack=0;resizeParent=1;resizeLast=0;collapsible=1;marginBottom=0;rounded=0;shadow=0;strokeWidth=1;fontSize=13;" parent="WIyWlLk6GJQsqaUBKTNV-1" vertex="1">
          <mxGeometry x="310" y="480" width="200" height="118" as="geometry">
            <mxRectangle x="230" y="140" width="160" height="26" as="alternateBounds" />
          </mxGeometry>
        </mxCell>
        <mxCell id="lyuGTbBeJ2-KbHGN9zhW-15" value="&lt;div&gt;&lt;b&gt;رستوران&lt;/b&gt;&lt;/div&gt;" style="text;html=1;align=right;verticalAlign=middle;resizable=0;points=[];autosize=1;fontSize=15;" parent="lyuGTbBeJ2-KbHGN9zhW-12" vertex="1">
          <mxGeometry y="26" width="200" height="20" as="geometry" />
        </mxCell>
        <mxCell id="lyuGTbBeJ2-KbHGN9zhW-13" value="" style="line;html=1;strokeWidth=1;align=left;verticalAlign=middle;spacingTop=-1;spacingLeft=3;spacingRight=3;rotatable=0;labelPosition=right;points=[];portConstraint=eastwest;" parent="lyuGTbBeJ2-KbHGN9zhW-12" vertex="1">
          <mxGeometry y="46" width="200" height="26" as="geometry" />
        </mxCell>
        <mxCell id="lyuGTbBeJ2-KbHGN9zhW-14" value="&lt;div&gt;&lt;b&gt;&lt;font color=&quot;#FF0000&quot;&gt;() ثبت نام&lt;/font&gt; &lt;br&gt;&lt;/b&gt;&lt;/div&gt;&lt;div&gt;&lt;b&gt;() درخواست فسخ قرارداد&lt;/b&gt;&lt;/div&gt;" style="text;html=1;align=right;verticalAlign=middle;resizable=0;points=[];autosize=1;fontSize=15;" parent="lyuGTbBeJ2-KbHGN9zhW-12" vertex="1">
          <mxGeometry y="72" width="200" height="40" as="geometry" />
        </mxCell>
        <mxCell id="lyuGTbBeJ2-KbHGN9zhW-16" value="رستوران" style="swimlane;fontStyle=3;align=center;verticalAlign=top;childLayout=stackLayout;horizontal=1;startSize=26;horizontalStack=0;resizeParent=1;resizeLast=0;collapsible=1;marginBottom=0;rounded=0;shadow=0;strokeWidth=1;fontSize=13;" parent="WIyWlLk6GJQsqaUBKTNV-1" vertex="1">
          <mxGeometry x="560" y="480" width="200" height="228" as="geometry">
            <mxRectangle x="230" y="140" width="160" height="26" as="alternateBounds" />
          </mxGeometry>
        </mxCell>
        <mxCell id="lyuGTbBeJ2-KbHGN9zhW-17" value="&lt;div&gt;&lt;b&gt;شناسه رستوران&lt;br&gt;&lt;/b&gt;&lt;/div&gt;&lt;div&gt;&lt;b&gt;منو روزانه&lt;br&gt;&lt;/b&gt;&lt;/div&gt;&lt;div&gt;&lt;b&gt;مدیر&lt;/b&gt;&lt;/div&gt;&lt;div&gt;&lt;div&gt;&lt;b&gt;منوی اصلی&lt;/b&gt;&lt;/div&gt;&lt;div&gt;&lt;b&gt;عکس رستوران&lt;br&gt;&lt;/b&gt;&lt;/div&gt;&lt;div&gt;&lt;b&gt;توضیح اضافی &lt;br&gt;&lt;/b&gt;&lt;/div&gt;&lt;div&gt;&lt;b&gt;آدرس&lt;/b&gt;&lt;br&gt;&lt;/div&gt;&lt;/div&gt;" style="text;html=1;align=right;verticalAlign=middle;resizable=0;points=[];autosize=1;fontSize=15;" parent="lyuGTbBeJ2-KbHGN9zhW-16" vertex="1">
          <mxGeometry y="26" width="200" height="130" as="geometry" />
        </mxCell>
        <mxCell id="lyuGTbBeJ2-KbHGN9zhW-18" value="" style="line;html=1;strokeWidth=1;align=left;verticalAlign=middle;spacingTop=-1;spacingLeft=3;spacingRight=3;rotatable=0;labelPosition=right;points=[];portConstraint=eastwest;" parent="lyuGTbBeJ2-KbHGN9zhW-16" vertex="1">
          <mxGeometry y="156" width="200" height="26" as="geometry" />
        </mxCell>
        <mxCell id="lyuGTbBeJ2-KbHGN9zhW-24" value="&lt;div&gt;&lt;b&gt;() تنظیم منوی روزانه&lt;br&gt;&lt;/b&gt;&lt;/div&gt;&lt;div&gt;&lt;div&gt;&lt;b&gt;() تنظیم نمای فروش&lt;/b&gt;&lt;/div&gt;&lt;/div&gt;" style="text;html=1;align=right;verticalAlign=middle;resizable=0;points=[];autosize=1;fontSize=15;" parent="lyuGTbBeJ2-KbHGN9zhW-16" vertex="1">
          <mxGeometry y="182" width="200" height="40" as="geometry" />
        </mxCell>
        <mxCell id="tZh1ZtW-dNU_HLveQdIa-2" value="آدرس" style="swimlane;fontStyle=3;align=center;verticalAlign=top;childLayout=stackLayout;horizontal=1;startSize=26;horizontalStack=0;resizeParent=1;resizeLast=0;collapsible=1;marginBottom=0;rounded=0;shadow=0;strokeWidth=1;fillColor=#FFFFFF;fontSize=13;" parent="WIyWlLk6GJQsqaUBKTNV-1" vertex="1">
          <mxGeometry x="50" y="480" width="200" height="168" as="geometry">
            <mxRectangle x="230" y="140" width="160" height="26" as="alternateBounds" />
          </mxGeometry>
        </mxCell>
        <mxCell id="tZh1ZtW-dNU_HLveQdIa-3" value="&lt;div&gt;&lt;b&gt;خیابان&lt;/b&gt;&lt;/div&gt;&lt;div&gt;&lt;b&gt;شهر&lt;/b&gt;&lt;/div&gt;&lt;div&gt;&lt;b&gt;پلاک &lt;br&gt;&lt;/b&gt;&lt;/div&gt;&lt;div&gt;&lt;b&gt;کوچه &lt;br&gt;&lt;/b&gt;&lt;/div&gt;&lt;div&gt;&lt;b&gt;کدپستی&lt;/b&gt;&lt;br&gt;&lt;/div&gt;" style="text;html=1;align=right;verticalAlign=middle;resizable=0;points=[];autosize=1;fontSize=15;" parent="tZh1ZtW-dNU_HLveQdIa-2" vertex="1">
          <mxGeometry y="26" width="200" height="90" as="geometry" />
        </mxCell>
        <mxCell id="tZh1ZtW-dNU_HLveQdIa-4" value="" style="line;html=1;strokeWidth=1;align=left;verticalAlign=middle;spacingTop=-1;spacingLeft=3;spacingRight=3;rotatable=0;labelPosition=right;points=[];portConstraint=eastwest;" parent="tZh1ZtW-dNU_HLveQdIa-2" vertex="1">
          <mxGeometry y="116" width="200" height="26" as="geometry" />
        </mxCell>
        <mxCell id="tZh1ZtW-dNU_HLveQdIa-5" value="&lt;b&gt;() تنظیم آدرس&lt;/b&gt;" style="text;html=1;align=right;verticalAlign=middle;resizable=0;points=[];autosize=1;fontSize=15;" parent="tZh1ZtW-dNU_HLveQdIa-2" vertex="1">
          <mxGeometry y="142" width="200" height="20" as="geometry" />
        </mxCell>
        <mxCell id="tZh1ZtW-dNU_HLveQdIa-6" value="غذا" style="swimlane;fontStyle=3;align=center;verticalAlign=top;childLayout=stackLayout;horizontal=1;startSize=26;horizontalStack=0;resizeParent=1;resizeLast=0;collapsible=1;marginBottom=0;rounded=0;shadow=0;strokeWidth=1;fontSize=13;" parent="WIyWlLk6GJQsqaUBKTNV-1" vertex="1">
          <mxGeometry x="310" y="757" width="200" height="171" as="geometry">
            <mxRectangle x="230" y="140" width="160" height="26" as="alternateBounds" />
          </mxGeometry>
        </mxCell>
        <mxCell id="tZh1ZtW-dNU_HLveQdIa-7" value="&lt;div&gt;&lt;b&gt;نام غذا&lt;/b&gt;&lt;/div&gt;&lt;div&gt;&lt;b&gt;قیمت اصلی&lt;/b&gt;&lt;/div&gt;&lt;div&gt;&lt;b&gt;مواد تشکیل دهنده غذا&lt;/b&gt;&lt;/div&gt;&lt;div&gt;&lt;b&gt;عکس غذا&lt;/b&gt;&lt;br&gt;&lt;/div&gt;" style="text;html=1;align=right;verticalAlign=middle;resizable=0;points=[];autosize=1;fontSize=15;" parent="tZh1ZtW-dNU_HLveQdIa-6" vertex="1">
          <mxGeometry y="26" width="200" height="80" as="geometry" />
        </mxCell>
        <mxCell id="tZh1ZtW-dNU_HLveQdIa-8" value="" style="line;html=1;strokeWidth=1;align=left;verticalAlign=middle;spacingTop=-1;spacingLeft=3;spacingRight=3;rotatable=0;labelPosition=right;points=[];portConstraint=eastwest;" parent="tZh1ZtW-dNU_HLveQdIa-6" vertex="1">
          <mxGeometry y="106" width="200" height="26" as="geometry" />
        </mxCell>
        <mxCell id="tZh1ZtW-dNU_HLveQdIa-9" value="&lt;b&gt;() تنظیم غذا&lt;/b&gt;" style="text;html=1;align=right;verticalAlign=middle;resizable=0;points=[];autosize=1;fontSize=15;" parent="tZh1ZtW-dNU_HLveQdIa-6" vertex="1">
          <mxGeometry y="132" width="200" height="20" as="geometry" />
        </mxCell>
        <mxCell id="tZh1ZtW-dNU_HLveQdIa-10" value="نظر" style="swimlane;fontStyle=3;align=center;verticalAlign=top;childLayout=stackLayout;horizontal=1;startSize=26;horizontalStack=0;resizeParent=1;resizeLast=0;collapsible=1;marginBottom=0;rounded=0;shadow=0;strokeWidth=1;fontSize=13;" parent="WIyWlLk6GJQsqaUBKTNV-1" vertex="1">
          <mxGeometry x="50" y="757" width="200" height="171" as="geometry">
            <mxRectangle x="230" y="140" width="160" height="26" as="alternateBounds" />
          </mxGeometry>
        </mxCell>
        <mxCell id="tZh1ZtW-dNU_HLveQdIa-11" value="&lt;div&gt;&lt;b&gt;شناسه رستوران&lt;/b&gt;&lt;/div&gt;&lt;div&gt;&lt;b&gt;شناسه خریدار&lt;/b&gt;&lt;/div&gt;&lt;div&gt;&lt;b&gt;متن نظر &lt;br&gt;&lt;/b&gt;&lt;/div&gt;&lt;div&gt;&lt;b&gt;امتیاز&lt;/b&gt;&lt;br&gt;&lt;/div&gt;" style="text;html=1;align=right;verticalAlign=middle;resizable=0;points=[];autosize=1;fontSize=15;" parent="tZh1ZtW-dNU_HLveQdIa-10" vertex="1">
          <mxGeometry y="26" width="200" height="80" as="geometry" />
        </mxCell>
        <mxCell id="tZh1ZtW-dNU_HLveQdIa-12" value="" style="line;html=1;strokeWidth=1;align=left;verticalAlign=middle;spacingTop=-1;spacingLeft=3;spacingRight=3;rotatable=0;labelPosition=right;points=[];portConstraint=eastwest;" parent="tZh1ZtW-dNU_HLveQdIa-10" vertex="1">
          <mxGeometry y="106" width="200" height="26" as="geometry" />
        </mxCell>
        <mxCell id="tZh1ZtW-dNU_HLveQdIa-13" value="&lt;b&gt;() ثبت نظر&lt;/b&gt;" style="text;html=1;align=right;verticalAlign=middle;resizable=0;points=[];autosize=1;fontSize=15;" parent="tZh1ZtW-dNU_HLveQdIa-10" vertex="1">
          <mxGeometry y="132" width="200" height="20" as="geometry" />
        </mxCell>
        <mxCell id="tZh1ZtW-dNU_HLveQdIa-14" value="خرید" style="swimlane;fontStyle=3;align=center;verticalAlign=top;childLayout=stackLayout;horizontal=1;startSize=26;horizontalStack=0;resizeParent=1;resizeLast=0;collapsible=1;marginBottom=0;rounded=0;shadow=0;strokeWidth=1;fontSize=13;" parent="WIyWlLk6GJQsqaUBKTNV-1" vertex="1">
          <mxGeometry x="560" y="757" width="200" height="171" as="geometry">
            <mxRectangle x="230" y="140" width="160" height="26" as="alternateBounds" />
          </mxGeometry>
        </mxCell>
        <mxCell id="tZh1ZtW-dNU_HLveQdIa-15" value="&lt;div&gt;&lt;b&gt;شناسه خرید&lt;br&gt;&lt;/b&gt;&lt;/div&gt;&lt;div&gt;&lt;b&gt;شناسه رستوران&lt;/b&gt;&lt;/div&gt;&lt;div&gt;&lt;span&gt;&lt;b&gt;شناسه خریدار&lt;/b&gt;&lt;/span&gt;&lt;/div&gt;&lt;div&gt;&lt;b&gt;قیمت کل&lt;/b&gt;&lt;/div&gt;&lt;div&gt;&lt;b&gt;لیست غذا&lt;/b&gt;&lt;/div&gt;" style="text;html=1;align=right;verticalAlign=middle;resizable=0;points=[];autosize=1;fontSize=15;" parent="tZh1ZtW-dNU_HLveQdIa-14" vertex="1">
          <mxGeometry y="26" width="200" height="90" as="geometry" />
        </mxCell>
        <mxCell id="tZh1ZtW-dNU_HLveQdIa-16" value="" style="line;html=1;strokeWidth=1;align=left;verticalAlign=middle;spacingTop=-1;spacingLeft=3;spacingRight=3;rotatable=0;labelPosition=right;points=[];portConstraint=eastwest;" parent="tZh1ZtW-dNU_HLveQdIa-14" vertex="1">
          <mxGeometry y="116" width="200" height="32" as="geometry" />
        </mxCell>
        <mxCell id="tZh1ZtW-dNU_HLveQdIa-17" value="&lt;b&gt;() سفارش غذا&lt;/b&gt;" style="text;html=1;align=right;verticalAlign=middle;resizable=0;points=[];autosize=1;fontSize=15;" parent="tZh1ZtW-dNU_HLveQdIa-14" vertex="1">
          <mxGeometry y="148" width="200" height="20" as="geometry" />
        </mxCell>
      </root>
    </mxGraphModel>
  </diagram>
</mxfile>
